<svg xmlns="http://www.w3.org/2000/svg" viewBox="0 0 79.57 80"><defs><style>.cls-1{fill:#70f69a;}.cls-1,.cls-2,.cls-3,.cls-4,.cls-5,.cls-6,.cls-7{fill-rule:evenodd;}.cls-2{fill:#65e583;}.cls-3{fill:#f2f2f2;}.cls-4{fill:#000451;}.cls-5{fill:#00097c;}.cls-6{isolation:isolate;opacity:0.2;}.cls-7{fill:#fff;}</style></defs><g id="Layer_2" data-name="Layer 2"><g id="Layer_1-2" data-name="Layer 1"><g id="Page-1"><g id="Homepage"><g id="Group-87"><path id="Fill-1" class="cls-1" d="M36.68,19.91,27.89,51.14H56.83L48.48,38.38A12.18,12.18,0,0,0,60,29.84c2.11-6.69-3.14-9.93-9.82-9.93Z"/><polygon id="Fill-3" class="cls-2" points="50.73 30.88 34.19 30.88 28.49 51.14 37.67 51.14 50.73 30.88"/><polygon id="Fill-5" class="cls-3" points="37.67 51.14 29.75 51.16 28.25 59.35 32.58 59.1 37.67 51.14"/><polygon id="Fill-7" class="cls-4" points="19.1 26.87 49.19 26.87 28.25 59.35 19.1 26.87"/><path id="Fill-77" class="cls-5" d="M79.57,40A39.79,39.79,0,1,1,39.78,0,39.89,39.89,0,0,1,79.57,40"/><path id="Fill-79" class="cls-1" d="M36.12,24.39l-8.1,29H54.67L47,41.54a11.21,11.21,0,0,0,10.6-7.93c1.94-6.2-2.89-9.22-9.05-9.22Z"/><polygon id="Fill-81" class="cls-2" points="49.02 34.39 33.4 34.39 28.02 53.39 36.69 53.39 49.02 34.39"/><polygon id="Fill-83" class="cls-6" points="37.02 53.39 29.46 53.41 28.02 61.39 31.96 61.35 37.02 53.39"/><polygon id="Fill-85" class="cls-7" points="20.02 30.39 48.02 30.39 28.53 60.39 20.02 30.39"/></g></g></g></g></g></svg>