<?xml version="1.0" encoding="UTF-8"?>
<svg width="115px" height="115px" viewBox="0 0 115 115" version="1.1" xmlns="http://www.w3.org/2000/svg" xmlns:xlink="http://www.w3.org/1999/xlink">
    <title>Group 87</title>
    <defs>
        <polygon id="path-1" points="0 0 10.3532154 0 10.3532154 7.10913895 0 7.10913895"></polygon>
        <polygon id="path-3" points="0 0 2.43039208 0 2.43039208 2.64386573 0 2.64386573"></polygon>
    </defs>
    <g id="Page-1" stroke="none" stroke-width="1" fill="none" fill-rule="evenodd">
        <g id="Homepage" transform="translate(-324.000000, -811.000000)">
            <g id="Group-87" transform="translate(324.000000, 811.000000)">
                <path d="M55.6551551,37.5146349 L46.8679193,68.7496845 L75.8036796,68.7496845 L67.4602027,55.9878755 C71.0522907,55.9878755 76.9183115,53.9132114 78.9648511,47.4461316 C81.0800692,40.7619292 75.831179,37.5146349 69.1465982,37.5146349 L55.6551551,37.5146349 Z" id="Fill-1" fill="#70F69A"></path>
                <polygon id="Fill-3" fill="#65E583" points="69.7103353 48.4927829 53.1667411 48.4927829 47.46795 68.7496003 56.6478545 68.7496003"></polygon>
                <polygon id="Fill-5" fill="#F2F2F2" points="56.6478684 68.7496705 48.7319579 68.7717055 47.2229822 76.9600464 51.5569949 76.7083976"></polygon>
                <polygon id="Fill-7" fill="#000451" points="38.0807253 44.4755808 68.170203 44.4755808 47.2229403 76.9600324"></polygon>
                <g id="Group-11" transform="translate(40.979729, 0.000000)">
                    <mask id="mask-2" fill="white">
                        <use xlink:href="#path-1"></use>
                    </mask>
                    <g id="Clip-10"></g>
                    <path d="M0.574962566,5.67611939 L2.34985857,5.25955849 C2.45566834,5.71499653 3.02045239,5.96482079 5.49790849,5.38334782 C8.04920808,4.78447135 8.44676245,4.39738411 8.35826193,4.01619159 C8.30856764,3.80243746 8.09136448,3.70643758 7.49168274,3.7687533 C6.8530552,3.83050761 5.56156186,4.10405113 4.58219337,4.29464739 C3.60296446,4.485384 2.07947135,4.72524336 1.30739507,4.63205049 C0.64545588,4.55205058 0.178524921,4.22068257 0.0340485263,3.59794649 C-0.229219572,2.46391278 1.01844228,1.16173893 4.32785907,0.385178477 C8.24728731,-0.534680049 9.17305297,0.345739929 9.42333913,1.4237737 L7.64844312,1.8403346 C7.53844563,1.36637026 6.77809498,1.24089673 4.65198873,1.73984349 C2.70148759,2.19766749 1.90009727,2.65029852 1.99069165,3.04075418 C2.03605863,3.23584166 2.23036891,3.31766613 2.6728715,3.29226265 C3.14524649,3.26966618 4.59810671,2.97759637 5.56114309,2.80075448 C6.7387304,2.58307053 7.96992055,2.34321118 8.86707011,2.38742165 C9.72541344,2.43107072 10.1659618,2.81773691 10.3062504,3.42180635 C10.526385,4.36987537 10.1205948,5.72945266 5.83125113,6.73604792 C1.50505553,7.75120458 0.756290912,6.45689037 0.574962566,5.67611939" id="Fill-9" fill="#00097C" mask="url(#mask-2)"></path>
                </g>
                <path d="M52.3736425,3.08662079 C52.3199001,1.72283299 53.7364667,0.539676534 56.5913761,0.426132813 C59.4937463,0.310764533 60.6519305,1.2581318 60.69646,2.39300761 L59.0270946,2.45925314 C59.0012703,2.04002558 58.3013624,1.63806116 56.6604735,1.70332424 C54.9722633,1.77027152 54.2246154,2.32535857 54.2511377,3.00241037 C54.2771015,3.66051483 54.9338759,4.17882999 56.6885312,4.10907569 C58.4053575,4.04086524 59.0914459,3.61237454 59.0940981,3.19202417 L60.7633239,3.12563829 C60.8064575,4.22247906 59.7265837,5.26823217 56.6724783,5.38963553 C53.6751864,5.50879328 52.4216617,4.30725088 52.3736425,3.08662079" id="Fill-12" fill="#00097C"></path>
                <path d="M62.1710405,0.47724854 L64.035135,0.716827195 L63.8311929,2.09521148 L63.8593903,2.09900095 C64.2841648,1.31640541 65.2558558,0.748827156 66.9221503,0.962861983 C69.1910578,1.25451075 69.8356878,2.28019371 69.655197,3.69998145 C69.6323041,3.87991105 69.5749323,4.18040192 69.5096038,4.39317359 L67.8056199,4.17422648 C67.8258606,4.09015641 67.8650856,3.93170046 67.8916078,3.72356037 C67.9770373,3.05142084 67.6089366,2.48468469 66.2061895,2.30433403 C64.6056423,2.09872025 63.7715877,2.78994747 63.6427455,3.80271817 L63.4406181,5.39289166 L61.576384,5.15331301 L62.1710405,0.47724854 Z" id="Fill-14" fill="#00097C"></path>
                <path d="M77.478852,6.13143111 C77.668137,5.52090554 77.1582121,4.76118717 75.3460454,4.19276681 C73.5157319,3.61887278 72.6756749,3.95515307 72.4862503,4.56553829 C72.3025489,5.15781827 72.8034004,5.91458927 74.633714,6.48862366 C76.4460203,7.05704402 77.2922192,6.73269354 77.478852,6.13143111 M70.6922304,4.00287231 C71.0737318,2.77283872 72.6532008,2.00876948 75.7248946,2.97199637 C78.7873754,3.93269695 79.6634468,5.46715122 79.2819453,6.69690411 C78.8975125,7.93592014 77.3448449,8.67851572 74.2550043,7.7093941 C71.1471565,6.73465845 70.3077975,5.24174799 70.6922304,4.00287231" id="Fill-16" fill="#00097C"></path>
                <polygon id="Fill-18" fill="#00097C" points="82.0365449 3.35498538 83.7494626 4.13182654 81.018091 10.2212226 79.3050336 9.44438146"></polygon>
                <polygon id="Fill-20" fill="#00097C" points="85.1053491 4.79386082 86.7712248 5.66894747 83.6938078 11.5904841 82.0279321 10.7152571"></polygon>
                <path d="M92.6332952,15.9128086 C94.221,17.2173685 95.2623468,17.3085964 95.9530417,16.4587729 C96.5476981,15.7271247 96.3914961,14.6373014 94.664061,13.2180751 L92.6648427,11.5754104 L90.5383177,14.1915476 L92.6332952,15.9128086 Z M92.0047182,9.15969408 L95.5035596,12.0342169 C98.3923895,14.4076877 98.6613808,16.354352 97.5260895,17.7512625 C96.252743,19.3179975 94.3811106,19.2224186 91.7791396,17.0845967 L88.0524861,14.0225653 L92.0047182,9.15969408 Z" id="Fill-22" fill="#00097C"></path>
                <path d="M102.34236,24.7022716 C102.831905,24.2939914 102.815712,23.3773609 101.603227,21.9081698 C100.378738,20.4243821 99.4917781,20.2465577 99.0022335,20.6548379 C98.5273458,21.0509076 98.5375359,21.9602399 99.7621653,23.4440275 C100.974511,24.9132187 101.860214,25.1045167 102.34236,24.7022716 M97.8020324,19.2003836 C98.7882409,18.3776477 100.527122,18.6012264 102.582177,21.091469 C104.63109,23.574273 104.535051,25.3412884 103.548843,26.1640242 C102.555096,26.9929355 100.850275,26.7657077 98.7832156,24.2607283 C96.7038722,21.7412928 96.8082861,20.0292949 97.8020324,19.2003836" id="Fill-24" fill="#00097C"></path>
                <polygon id="Fill-26" fill="#00097C" points="105.859655 25.0213589 106.862336 26.917497 104.953851 29.9158091 104.962646 29.9326512 108.551104 30.111458 109.482314 31.8725786 107.582763 34.8877329 107.591697 34.9045749 111.126553 34.9823292 112.01784 36.6676605 106.643039 36.5465379 105.631564 34.6335577 107.490354 31.6836666 107.48142 31.6668245 103.96513 31.4818423 102.953656 29.5688622"></polygon>
                <path d="M112.357436,38.154971 L112.853821,39.9774249 L111.265139,40.3951086 L111.272677,40.4226173 C112.468969,40.479319 113.363885,41.3805109 113.932996,43.4699119 C114.597448,45.9092071 113.970128,47.1110302 112.432117,47.5344683 L110.216673,48.1444325 L109.720288,46.3218382 L111.459588,45.8429616 C112.503308,45.5555233 112.823809,44.7451384 112.357576,43.0331405 C111.923867,41.4407214 111.032022,40.4790383 109.878584,40.796652 L108.33136,41.2226164 L107.835115,39.4001624 L112.357436,38.154971 Z" id="Fill-28" fill="#00097C"></path>
                <g id="Group-32" transform="translate(112.569608, 57.386468)">
                    <mask id="mask-4" fill="white">
                        <use xlink:href="#path-3"></use>
                    </mask>
                    <g id="Clip-31"></g>
                    <path d="M1.24099539,0.000255330051 C1.92443156,0.0135886471 2.44510494,0.577517783 2.43016874,1.35042912 C2.41523253,2.11393696 1.87292258,2.65709419 1.18962601,2.64362053 C0.496837263,2.62986616 -0.0144835444,2.06621772 0.000313071963,1.30270988 C0.0153888697,0.529798543 0.548067057,-0.0134990391 1.24099539,0.000255330051" id="Fill-30" fill="#00097C" mask="url(#mask-4)"></path>
                </g>
                <path d="M111.807532,69.9095989 L111.237863,71.650088 C110.796058,71.5039829 110.290181,71.8590702 109.495072,74.2885409 C108.675954,76.7905729 108.798096,77.3334495 109.167872,77.4556949 C109.375164,77.5243264 109.569893,77.3876249 109.828834,76.8405378 C110.108853,76.2599069 110.548284,75.0088207 110.895865,74.0688921 C111.243446,73.128823 111.832379,71.696123 112.313269,71.0816676 C112.725481,70.5550718 113.249923,70.3265808 113.853932,70.5265806 C114.953907,70.8903696 115.410788,72.6389991 114.348642,75.8844688 C113.090511,79.7281132 111.861275,80.0648146 110.815461,79.7188501 L111.385131,77.9782206 C111.844943,78.1303608 112.346911,77.5429931 113.02937,75.457943 C113.655295,73.5451032 113.687959,72.6215956 113.309249,72.4962624 C113.119825,72.4335256 112.949245,72.5580167 112.740696,72.951139 C112.514141,73.368542 112.00617,74.7676982 111.655378,75.6865743 C111.227533,76.8109238 110.790754,77.9926767 110.286412,78.7400443 C109.80287,79.4541486 109.245205,79.6314116 108.659064,79.4374469 C107.73944,79.1331666 106.795946,78.0774486 108.17273,73.8711379 C109.561238,69.6286168 111.050113,69.6590729 111.807532,69.9095989" id="Fill-33" fill="#00097C"></path>
                <path d="M108.377202,80.5511719 C109.562746,81.2160132 109.828666,83.0482916 108.436947,85.5572008 C107.021916,88.1076539 105.614143,88.6075831 104.627656,88.054461 L105.44147,86.5875154 C105.810827,86.7835853 106.516877,86.3927086 107.316731,84.9508858 C108.139898,83.4670981 108.058516,82.5364326 107.470002,82.2061874 C106.897959,81.885486 106.115693,82.178819 105.260141,83.7208522 C104.423155,85.2294819 104.429158,86.0415511 104.784695,86.2627438 L103.970881,87.7296894 C103.017477,87.1950936 102.692649,85.7233761 104.181663,83.0394495 C105.642899,80.4056282 107.316033,79.9560849 108.377202,80.5511719" id="Fill-35" fill="#00097C"></path>
                <path d="M105.477693,90.3188371 L104.299827,91.7915371 L103.237681,90.8959592 L103.219814,90.918275 C103.66106,91.691467 103.634538,92.8212902 102.581605,94.1377798 C101.147729,95.9301987 99.9409671,95.9466197 98.8313605,95.0493577 C98.6907926,94.935814 98.4660515,94.7294984 98.3197605,94.56206 L99.3965633,93.2159564 C99.4570061,93.2771493 99.5710517,93.3936404 99.7336749,93.5252894 C100.258815,93.9499906 100.932061,93.9307626 101.818323,92.8226937 C102.829657,91.5582742 102.679737,90.481644 101.888258,89.8416447 L100.645481,88.8365933 L101.823348,87.3640337 L105.477693,90.3188371 Z" id="Fill-37" fill="#00097C"></path>
                <path d="M92.6941009,100.490839 C93.1137106,100.9714 94.0244005,100.929435 95.4510176,99.6702082 C96.8920126,98.3984904 97.0441665,97.5022108 96.6245568,97.02165 C96.2175103,96.555405 95.3139395,96.591054 93.8729445,97.8627718 C92.446467,99.1221387 92.2807728,100.017436 92.6941009,100.490839 M98.0369357,95.7749147 C98.8822971,96.7431942 98.7083671,98.4968763 96.290237,100.63133 C93.8790865,102.759468 92.1199643,102.712029 91.2746029,101.74389 C90.4228203,100.768452 90.6014964,99.0488756 93.0340043,96.9017905 C95.4806108,94.7422142 97.1852927,94.7994773 98.0369357,95.7749147" id="Fill-39" fill="#00097C"></path>
                <polygon id="Fill-41" fill="#00097C" points="92.6827801 105.846916 91.1320668 106.914143 87.3791703 101.40201 88.9298836 100.334783"></polygon>
                <polygon id="Fill-43" fill="#00097C" points="89.8612468 107.735897 88.2519054 108.711474 84.8211843 102.99092 86.4305257 102.015202"></polygon>
                <path d="M76.5026662,108.419826 C74.5684972,109.103474 73.948854,109.949648 74.3108127,110.985015 C74.6225188,111.876523 75.6291075,112.309645 77.7334376,111.565787 L80.169156,110.704875 L79.0546637,107.517651 L76.5026662,108.419826 Z M82.5638348,111.395962 L78.3015718,112.902627 C74.7824897,114.146696 72.9895865,113.3641 72.3945113,111.662488 C71.7271281,109.753859 72.7827131,108.197089 75.9525392,107.076669 L80.4924481,105.471899 L82.5638348,111.395962 Z" id="Fill-45" fill="#00097C"></path>
                <path d="M63.9775399,112.15721 C64.067855,112.790192 64.853332,113.255174 66.7325023,112.984157 C68.6303777,112.710192 69.2447165,112.043246 69.1544013,111.410264 C69.0667383,110.79623 68.2906139,110.329704 66.3927385,110.603669 C64.5137078,110.874686 63.888481,111.533773 63.9775399,112.15721 M71.0147268,111.141913 C71.1967531,112.41714 70.0983137,113.790472 66.9131327,114.24998 C63.7375834,114.708225 62.289888,113.702331 62.1078617,112.426965 C61.9245791,111.142335 63.0083615,109.80002 66.2121081,109.337705 C69.4346995,108.872864 70.8313046,109.857003 71.0147268,111.141913" id="Fill-47" fill="#00097C"></path>
                <polygon id="Fill-49" fill="#00097C" points="61.8799939 115 59.7478852 114.872421 58.1970323 111.671864 58.178048 111.670741 56.156216 114.657264 54.1757028 114.538667 52.6060052 111.336987 52.5871604 111.336004 50.6789553 114.329264 48.7837321 114.21572 51.6873587 109.666112 53.8385913 109.794954 55.3743684 112.927441 55.3932131 112.928704 57.38266 110.007304 59.533753 110.136146"></polygon>
                <path d="M47.3421089,113.736703 L45.535805,113.214318 L46.0079008,111.632846 L45.9806806,111.624846 C45.3099472,112.62274 44.0784779,112.921967 42.0076496,112.323091 C39.5902175,111.623864 38.8958932,110.459655 39.3367207,108.918885 L39.9718585,106.699098 L41.7781624,107.221483 L41.2795444,108.964218 C40.9804015,110.009831 41.502052,110.706953 43.1987772,111.197759 C44.7771295,111.65418 46.0580139,111.388917 46.3887043,110.233269 L46.832184,108.683236 L48.6383484,109.205621 L47.3421089,113.736703 Z" id="Fill-51" fill="#00097C"></path>
                <path d="M30.2505653,104.967942 C29.882325,105.546748 29.1321645,105.698748 28.4846031,105.282187 C27.8448589,104.87096 27.6674391,104.122469 28.0356794,103.543663 C28.4090846,102.956716 29.1540802,102.812857 29.7938245,103.224085 C30.4413859,103.640645 30.6238309,104.380995 30.2505653,104.967942" id="Fill-53" fill="#00097C"></path>
                <path d="M20.6841062,96.7098609 L19.5030291,95.3143538 C19.8573104,95.011056 19.8193417,94.391969 18.1707753,92.4440416 C16.4729334,90.4378686 15.948491,90.2600442 15.6521399,90.513658 C15.4858874,90.6558332 15.5004048,90.8940084 15.8302577,91.4015165 C16.1772802,91.9441123 17.0106368,92.9730234 17.6276278,93.7608119 C18.2444792,94.5488811 19.1543315,95.8005287 19.4255563,96.5334401 C19.6579748,97.1616498 19.5788269,97.7306316 19.0944471,98.1450872 C18.2125129,98.8996126 16.4898238,98.3808764 14.2876406,95.7787743 C11.679388,92.6969535 12.0338089,91.4663585 12.8724699,90.7488857 L14.053547,92.1445332 C13.6847483,92.4599012 13.9221921,93.1967424 15.3369441,94.8686 C16.6348586,96.4022122 17.4020492,96.9112642 17.7057986,96.651475 C17.8575337,96.5215103 17.8409224,96.3102825 17.6157626,95.9264233 C17.3792959,95.5146343 16.4559033,94.3498638 15.858455,93.5702156 C15.1267205,92.6173747 14.3508752,91.6269198 13.9791451,90.8047453 C13.6247243,90.0176586 13.7647338,89.4467119 14.2345962,89.0447475 C14.9719143,88.4140114 16.3597253,88.1539415 19.2139367,91.5264286 C22.0928557,94.9282491 21.2914654,96.1902826 20.6841062,96.7098609" id="Fill-55" fill="#00097C"></path>
                <path d="M13.4343784,88.224945 C12.2534409,88.8977862 10.5583908,88.1742784 9.14992043,85.6750533 C7.71785924,83.1342845 8.02454005,81.665374 9.00725872,81.1053747 L9.83084397,82.5668466 C9.47209582,82.7821446 9.43747732,83.5915471 10.2471035,85.0280366 C11.0800413,86.5059295 11.9132583,86.9196834 12.4995394,86.5856487 C13.0693487,86.2610175 13.2265278,85.4364571 12.3609258,83.900459 C11.5137497,82.3975836 10.8206818,81.9808824 10.4479745,82.171198 L9.62438929,80.7098664 C10.574025,80.1689548 11.9933834,80.6545682 13.5001256,83.3281088 C14.9788101,85.9518249 14.4913593,87.6227001 13.4343784,88.224945" id="Fill-57" fill="#00097C"></path>
                <path d="M6.64023284,80.6564349 L6.0030012,78.8788932 L7.31627069,78.4334201 L7.30649934,78.4064727 C6.42037745,78.3827535 5.47492951,77.7718068 4.90525978,76.1827561 C4.12969374,74.01925 4.7440325,72.9750408 6.08340546,72.4895677 C6.25300818,72.4280941 6.54503197,72.3424801 6.76335185,72.3038837 L7.34600352,73.9288642 C7.26224909,73.9490747 7.1040928,73.9861272 6.90768866,74.0571447 C6.27366761,74.2870392 5.93948742,74.8748279 6.41912114,76.2123701 C6.96631676,77.7385437 7.95838801,78.1702625 8.91374689,77.823877 L10.4137888,77.2802987 L11.05116,79.0578404 L6.64023284,80.6564349 Z" id="Fill-59" fill="#00097C"></path>
                <path d="M4.67288311,64.3764267 C4.04612077,64.4847774 3.60557246,65.2874431 3.92760825,67.168704 C4.25285463,69.0686315 4.93335939,69.6673676 5.56012172,69.5590169 C6.1681789,69.4537538 6.6104023,68.6604916 6.28515592,66.7605641 C5.96298054,64.8794436 5.29029286,64.2694795 4.67288311,64.3764267 M5.87908652,71.4213304 C4.61606968,71.6398564 3.22002289,70.5740332 2.67408359,67.3855458 C2.12981937,64.2063216 3.08950557,62.7232357 4.35238281,62.5045693 C5.62461264,62.2844994 6.9895307,63.3362876 7.538541,66.5435819 C8.09090148,69.7698236 7.15131634,71.2011201 5.87908652,71.4213304" id="Fill-61" fill="#00097C"></path>
                <polygon id="Fill-63" fill="#00097C" points="0.136184706 61.5690056 0.041681789 59.6817096 6.6781038 59.3458504 6.77260672 61.2331463"></polygon>
                <polygon id="Fill-65" fill="#00097C" points="0 58.1180764 0.030430777 56.2285349 6.6742511 56.3364646 6.64395991 58.2260061"></polygon>
                <path d="M6.38845306,46.3527434 C6.81448393,44.3364652 6.41832547,43.3639751 5.35045646,43.1359052 C4.43125157,42.9395546 3.53954605,43.5782907 3.07610486,45.7721126 L2.53951813,48.3111972 L5.82632123,49.0132314 L6.38845306,46.3527434 Z M0.706133616,50.0076162 L1.64516039,45.5641128 C2.42016807,41.8953454 4.01792345,40.7634169 5.77271839,41.1381533 C7.74094754,41.558644 8.51372177,43.2748524 7.81548899,46.5795502 L6.81546107,51.3124567 L0.706133616,50.0076162 Z" id="Fill-67" fill="#00097C"></path>
                <path d="M9.7325023,33.6519589 C9.14803596,33.4000294 8.344133,33.8323096 7.59592674,35.5866934 C6.84046177,37.3586211 7.08711857,38.233427 7.67158491,38.4853565 C8.23874201,38.7298475 9.03901561,38.306269 9.79448058,36.5343414 C10.5426868,34.7799576 10.308314,33.9002393 9.7325023,33.6519589 M6.93119573,40.2221965 C5.75332924,39.7144077 5.15895195,38.0564448 6.42685446,35.082694 C7.69112761,32.1177854 9.29907312,31.3986283 10.4768,31.9062768 C11.6633211,32.4178552 12.2389933,34.0470462 10.9635529,37.0383408 C9.68071415,40.0470388 8.11771685,40.7336345 6.93119573,40.2221965" id="Fill-69" fill="#00097C"></path>
                <polygon id="Fill-71" fill="#00097C" points="8.41156928 30.3626296 9.6342444 28.60193 13.1579329 28.9453682 13.168821 28.9297893 11.6934867 25.6361792 12.8290572 24.0006725 16.3637734 24.3285317 16.3746615 24.3129528 14.8341383 21.113097 15.9208521 19.5480463 18.2605321 24.4144263 17.0271085 26.1907049 13.5686088 25.8698632 13.5577208 25.8855824 14.9949468 29.1174381 13.7615232 30.893857"></polygon>
                <path d="M17.0760071,18.5691984 L18.4610263,17.2915859 L19.5572322,18.5211984 L19.5783104,18.5019704 C19.0808091,17.4062524 19.4688713,16.1936223 21.0565761,14.7289224 C22.9102013,13.0188894 24.2601831,13.0299771 25.3382423,14.2115897 L26.8913286,15.9134823 L25.5064491,17.1912352 L24.2871242,15.8549561 C23.5555292,15.0531325 22.6918814,15.1373429 21.3908959,16.3376222 C20.1806444,17.4538313 19.7380022,18.6911632 20.5466512,19.5773375 L21.6312711,20.7658273 L20.2463916,22.0435801 L17.0760071,18.5691984 Z" id="Fill-73" fill="#00097C"></path>
                <path d="M33.4175298,8.46038266 C33.1171306,7.84312025 33.3780256,7.11961236 34.0685809,6.7798233 C34.7507608,6.44424477 35.4790056,6.68101641 35.7794048,7.29827881 C36.0839917,7.92410261 35.818909,8.6387684 35.1367291,8.97448729 C34.4461738,9.31427635 33.7222563,9.08620645 33.4175298,8.46038266" id="Fill-75" fill="#00097C"></path>
                <path d="M98.5436232,57.6094595 C98.5436232,79.7008345 80.7319717,97.6094595 58.7602195,97.6094595 C36.78859,97.6094595 18.9769385,79.7008345 18.9769385,57.6094595 C18.9769385,35.5180846 36.78859,17.6094595 58.7602195,17.6094595 C80.7319717,17.6094595 98.5436232,35.5180846 98.5436232,57.6094595" id="Fill-77" fill="#00097C"></path>
                <path d="M55.0933552,42 L47,71 L73.6509149,71 L65.9662387,59.1514749 C69.2747829,59.1514749 74.6775014,57.2251464 76.5625583,51.2208126 C78.5107282,45.0148927 73.676249,42 67.5195078,42 L55.0933552,42 Z" id="Fill-79" fill="#70F69A"></path>
                <polygon id="Fill-81" fill="#65E583" points="68 52 52.380474 52 47 71 55.6672127 71"></polygon>
                <polygon id="Fill-83" fill="#000000" opacity="0.2" points="56 71 48.4410552 71.0213923 47 79 50.9423097 78.9562699"></polygon>
                <polygon id="Fill-85" fill="#FFFFFF" points="39 48 67 48 47.5073793 78"></polygon>
            </g>
        </g>
    </g>
</svg>