<svg xmlns="http://www.w3.org/2000/svg" class="w-[200px]" viewBox="0 0 428 84.5" xml:space="preserve">
    <path d="m84.2 35.1-7 22.2H59c-5 0-9.5 3.3-11 8.1l-5.9 19.1H18.5l6.3-20.8c5.1-16.9 20.7-28.5 38.4-28.5h21z" fill="#1eaaf7"></path>
    <path d="m65.8 7.7-6.7 21.8c-17.4.7-32.7 11.6-39.1 27.8H0l6.6-22.2h26.9l8.3-27.5h24zM119 21c7.7 0 13.6 3.3 16.3 8h.4c-.2-1.5-.2-3-.2-4.5v-2H148V73h-12.5v-2.3c0-2.2.1-3.6.2-4.7h-.4c-2.9 5.3-9.2 8.6-16.8 8.6-14.4 0-24.5-11-24.5-26.8S104.5 21 119 21zm16 26.6c0-8.7-5.8-14.7-13.7-14.7s-13.6 6-13.6 14.7 5.7 14.9 13.6 14.9 13.6-6.1 13.7-14.9zM177.1 21c6.7 0 12.8 2.6 15.4 6.9h.4c-.2-1.5-.2-2.9-.2-4.4V0h13.4v73h-12.5v-2.2c0-1.5.1-3.1.2-4.6h-.4c-3.2 5.4-9.5 8.4-17 8.4-14.3 0-24.5-11-24.5-26.8S162.6 21 177.1 21zm16.1 26.6c0-8.7-5.8-14.7-13.7-14.7s-13.6 6-13.6 14.7 5.7 14.8 13.6 14.8 13.7-6 13.7-14.8zM235.1 21c6.7 0 12.9 2.6 15.4 6.9h.4c-.2-1.5-.2-2.9-.2-4.4V0h13.5v73h-12.5v-2.2c0-2.1.1-3.6.2-4.6h-.4c-3.2 5.4-9.5 8.4-16.9 8.4-14.3 0-24.5-11-24.5-26.8s10.5-26.8 25-26.8zm16.1 26.6c0-8.7-5.7-14.7-13.7-14.7s-13.6 6-13.6 14.7 5.8 14.8 13.6 14.8 13.7-6 13.7-14.8zM296.9 22.3v11.8c-1-.3-2-.4-3-.4-4.6 0-7.6 2.2-7.6 8v31.4h-13.7V39.7c0-12 6.7-18.1 18.9-18.1 1.8 0 3.6.2 5.4.7zM299.4 47.8c0-15.6 11.3-26.8 27-26.8s27.1 11.2 27.1 26.8-11.4 26.8-27.1 26.8-27-11.3-27-26.8zm40.4-.2c0-8.7-5.4-14.7-13.3-14.7s-13.3 6-13.3 14.7 5.5 14.9 13.3 14.9 13.3-6.1 13.3-14.9zM408 74.6c-5.7.1-11.1-2.3-14.7-6.7-3.6 4.4-9 6.9-14.7 6.7-11.7 0-20.2-8.2-20.2-19.9V22.6H372v32.5c0 4 3.3 7.3 7.3 7.3s7.3-3.3 7.3-7.3V22.6H400v32.5c-.1 4 3 7.3 6.9 7.5s7.3-3 7.5-6.9V22.6H428v32.5c0 11.5-8.4 19.5-20 19.5z" fill="#0b3168"></path>
</svg>