<svg version="1.1" class="h-12 lg:h-24" viewBox="0 0 303 61" xml:space="preserve" xmlns="http://www.w3.org/2000/svg"><rect x=".3" y="43.9" width="72.9" height="14.9" fill="#ECECEC"/> <rect x=".3" y="6" width="72.9" height="14.9" fill="#ECECEC"/> <rect x=".3" y="25" width="72.9" height="14.9" fill="#ECECEC"/> <g fill="#333332"><path d="m79.6 39.6c0-12.5 7.9-20.3 17.1-20.3 4.6 0 7.8 1.8 11.6 4.7l-0.2-7.1v-15.9h3.6v57.8h-3l-0.4-5h-0.2c-3.2 3.2-7.5 6-12.6 6-9.7 0-15.9-7.2-15.9-20.2zm28.5 10.7v-22.9c-4.1-3.6-7.5-5-11.2-5-7.7 0-13.6 7.5-13.6 17.2 0 10.3 4.6 17.1 12.8 17.1 4.2-0.1 8-2.3 12-6.4z"/> <path d="m123.3 39.6c0-12.5 7.9-20.3 17.1-20.3 4.6 0 7.8 1.8 11.6 4.7l-0.2-7.1v-15.9h3.6v57.8h-3l-0.4-5h-0.2c-3.2 3.2-7.5 6-12.6 6-9.6 0-15.9-7.2-15.9-20.2zm28.6 10.7v-22.9c-4.1-3.6-7.5-5-11.2-5-7.7 0-13.6 7.5-13.6 17.2 0 10.3 4.6 17.1 12.8 17.1 4.1-0.1 7.9-2.3 12-6.4z"/> <path d="m170.6 5.8h15.1c10.5 0 17.4 3.9 17.4 14 0 9.6-6.9 14.7-17.4 14.7h-11.4v24.3h-3.7v-53zm14.2 25.6c9.4 0 14.6-3.7 14.6-11.5 0-8-5.2-10.9-14.6-10.9h-10.5v22.4h10.5zm0.1 2 3.5-1.1 15.7 26.5h-4.3l-14.9-25.4z"/> <path d="m210.7 39.6c0-12.9 8.1-20.3 17.3-20.3s17.3 7.4 17.3 20.3c0 12.8-8.1 20.2-17.3 20.2s-17.3-7.4-17.3-20.2zm30.9 0c0-10.2-5.8-17.2-13.6-17.2s-13.6 7-13.6 17.2 5.8 17.1 13.6 17.1c7.8-0.1 13.6-7 13.6-17.1z"/> <path d="m251.5 20.2h3.8l7 25c0.9 3.6 1.8 6.9 2.6 10.3h0.3c0.9-3.5 1.9-6.8 2.8-10.3l7-25h4.2l7 25c1 3.6 1.9 6.9 2.9 10.3h0.3c0.9-3.5 1.8-6.8 2.8-10.3l6.8-25h3.6l-11 38.6h-4.6l-6.8-24c-1.1-3.7-1.9-7.2-2.9-11h-0.3c-0.9 3.8-1.9 7.5-3.1 11.2l-6.6 23.8h-4.3l-11.5-38.6z"/></g> <polygon points="55.1 20.9 49.9 6 45.8 6 40.5 20.9" fill="#35A8E0"/> <polygon points="39 25 33.6 39.8 61.6 39.8 56.5 25" fill="#1D70B7"/> <polygon points="32.2 43.9 63 43.9 68.1 58.8 26.7 58.8" fill="#2D2E82"/></svg>