<svg xmlns="http://www.w3.org/2000/svg" class="h-12 lg:h-24" viewBox="0 0 160.35 32.3">
    <g>
        <path d="M213.13,280.8h-8v22h-4.41v-22h-7.91v-3.59h20.3Z" transform="translate(-192.83 -275.81)" style="fill: #1d1d1b"></path>
        <path d="M229.54,302.81a10.08,10.08,0,0,1-.41-2.66,7.47,7.47,0,0,1-2.82,2.23,8.64,8.64,0,0,1-3.63.78,6.37,6.37,0,0,1-4.44-1.53,5,5,0,0,1-1.69-3.87,5.08,5.08,0,0,1,2.31-4.39,11.09,11.09,0,0,1,6.44-1.62h3.81v-2.16a4.16,4.16,0,0,0-1.25-3.21,5.2,5.2,0,0,0-3.67-1.17,5.77,5.77,0,0,0-3.64,1.13,3.34,3.34,0,0,0-1.44,2.7L217,289a4.89,4.89,0,0,1,2.11-3.92,8.13,8.13,0,0,1,5.19-1.66,7.43,7.43,0,0,1,5,1.59,5.73,5.73,0,0,1,1.89,4.43v9a11.17,11.17,0,0,0,.58,4.14v.21Zm-6.61-1.52a7.08,7.08,0,0,0,3.77-1,5.87,5.87,0,0,0,2.41-2.72v-4.18h-3.76a9.34,9.34,0,0,0-4.92,1.15,3.45,3.45,0,0,0-1.77,3.07,3.39,3.39,0,0,0,1.18,2.65A4.49,4.49,0,0,0,222.93,301.29Z" transform="translate(-192.83 -275.81)" style="fill: #1d1d1b"></path>
        <path d="M237.59,278.29a1.37,1.37,0,0,1,1.44-1.41,1.44,1.44,0,0,1,1.07.41,1.4,1.4,0,0,1,.39,1,1.38,1.38,0,0,1-.39,1,1.43,1.43,0,0,1-1.07.4,1.35,1.35,0,0,1-1.44-1.4Zm2.48,24.52H238v-19h2.11Z" transform="translate(-192.83 -275.81)" style="fill: #1d1d1b"></path>
        <path d="M249,302.81h-2.11v-27H249Z" transform="translate(-192.83 -275.81)" style="fill: #1d1d1b"></path>
        <path d="M260,293.31v9.5h-4.45v-25.6h9.79a9.89,9.89,0,0,1,6.81,2.24,7.52,7.52,0,0,1,2.53,5.91,7.29,7.29,0,0,1-2.47,5.86,10.38,10.38,0,0,1-6.92,2.09Zm0-3.58h5.34a5.23,5.23,0,0,0,3.62-1.12,4.1,4.1,0,0,0,1.25-3.22,4.42,4.42,0,0,0-1.27-3.32,4.87,4.87,0,0,0-3.48-1.27H260Z" transform="translate(-192.83 -275.81)" style="fill: #1d1d1b"></path>
        <path d="M288.35,285.58a8.08,8.08,0,0,0-1.42-.12,5.11,5.11,0,0,0-3.34,1.1,6.05,6.05,0,0,0-1.94,3.19v13.06h-2.09v-19h2.06l0,3a5.59,5.59,0,0,1,5.36-3.37,3.51,3.51,0,0,1,1.39.22Z" transform="translate(-192.83 -275.81)" style="fill: #1d1d1b"></path>
        <path d="M299.6,303.16a8.21,8.21,0,0,1-4.38-1.2,8,8,0,0,1-3.05-3.33,10.33,10.33,0,0,1-1.09-4.79v-.75a11.16,11.16,0,0,1,1.06-4.94,8.5,8.5,0,0,1,3-3.46,7.31,7.31,0,0,1,4.12-1.25,6.84,6.84,0,0,1,5.49,2.36,9.62,9.62,0,0,1,2,6.46v1.18H293.17v.4a8,8,0,0,0,1.85,5.39,5.93,5.93,0,0,0,4.67,2.15,6.84,6.84,0,0,0,3-.61,6.72,6.72,0,0,0,2.35-2l1.32,1A7.69,7.69,0,0,1,299.6,303.16Zm-.38-17.93a5.24,5.24,0,0,0-4,1.74,8,8,0,0,0-2,4.67h11.41v-.22a7,7,0,0,0-1.57-4.47A4.83,4.83,0,0,0,299.22,285.23Z" transform="translate(-192.83 -275.81)" style="fill: #1d1d1b"></path>
        <path d="M323.13,298a3,3,0,0,0-1.26-2.51,9.78,9.78,0,0,0-3.79-1.49,16.36,16.36,0,0,1-3.93-1.23,5.25,5.25,0,0,1-2.07-1.69,4.26,4.26,0,0,1-.68-2.43,4.54,4.54,0,0,1,1.88-3.72,7.6,7.6,0,0,1,4.82-1.46,7.84,7.84,0,0,1,5.11,1.57,5.06,5.06,0,0,1,1.92,4.1H323a3.39,3.39,0,0,0-1.4-2.77,5.47,5.47,0,0,0-3.52-1.11,5.54,5.54,0,0,0-3.33.92,2.86,2.86,0,0,0-1.26,2.4,2.61,2.61,0,0,0,1.05,2.21,11,11,0,0,0,3.81,1.43,17.8,17.8,0,0,1,4.15,1.39,5.4,5.4,0,0,1,2.05,1.77,4.88,4.88,0,0,1-1.28,6.37,8.28,8.28,0,0,1-5.07,1.44,8.56,8.56,0,0,1-5.39-1.61,5,5,0,0,1-2.06-4.07h2.11a3.65,3.65,0,0,0,1.55,2.87,6.35,6.35,0,0,0,3.79,1,6,6,0,0,0,3.55-1A2.92,2.92,0,0,0,323.13,298Z" transform="translate(-192.83 -275.81)" style="fill: #1d1d1b"></path>
        <path d="M342.25,298a3,3,0,0,0-1.25-2.51,9.78,9.78,0,0,0-3.79-1.49,16.36,16.36,0,0,1-3.93-1.23,5.25,5.25,0,0,1-2.07-1.69,4.26,4.26,0,0,1-.68-2.43,4.54,4.54,0,0,1,1.88-3.72,7.6,7.6,0,0,1,4.82-1.46,7.79,7.79,0,0,1,5.1,1.57,5,5,0,0,1,1.93,4.1h-2.11a3.39,3.39,0,0,0-1.4-2.77,6.3,6.3,0,0,0-6.85-.19,2.86,2.86,0,0,0-1.26,2.4,2.61,2.61,0,0,0,1.05,2.21,10.9,10.9,0,0,0,3.81,1.43,17.8,17.8,0,0,1,4.15,1.39,5.4,5.4,0,0,1,2.05,1.77,4.91,4.91,0,0,1-1.28,6.37,8.28,8.28,0,0,1-5.07,1.44,8.56,8.56,0,0,1-5.39-1.61,5,5,0,0,1-2.06-4.07H332a3.65,3.65,0,0,0,1.55,2.87,6.35,6.35,0,0,0,3.79,1,6,6,0,0,0,3.55-1A2.91,2.91,0,0,0,342.25,298Z" transform="translate(-192.83 -275.81)" style="fill: #1d1d1b"></path>
    </g>
    <g>
        <rect x="7.88" y="28.23" width="143.64" height="1.42" style="fill: #29a3dd"></rect>
        <rect x="62.69" y="30.88" width="97.66" height="1.42" style="fill: #28b3a3"></rect>
    </g>
</svg>